<svg xmlns="http://www.w3.org/2000/svg" xmlns:xlink="http://www.w3.org/1999/xlink" width="48" height="21" viewBox="0 0 48 21">
    <defs>
        <rect id="a" width="277" height="60" rx="7"/>
    </defs>
    <g fill="none" fill-rule="evenodd">
        <g transform="translate(-216 -18)">
            <use fill="#FFF" xlink:href="#a"/>
            <rect width="276" height="59" x=".5" y=".5" stroke="#417505" rx="7"/>
        </g>
        <text fill="#000" font-family="Roboto-Medium, Roboto" font-size="16" font-weight="400" transform="translate(-216 -18)">
            <tspan x="13" y="26">Computadoras y Celulares</tspan>
        </text>
        <text fill="#78A04D" font-family="Roboto-Medium, Roboto" font-size="13" font-weight="400" transform="translate(-216 -18)">
            <tspan x="13" y="47">Antel Integra</tspan>
        </text>
        <g>
            <path fill="#003E7E" d="M47.83 2.314c-2.166.215-2.718 1.5-2.718 2.4V20.7H48V2.271l-.17.043zM29.097 2.314h-.127-.043c-.467 0-1.104.172-1.656.557-.552.386-1.02.986-1.062 1.843v1.243h-1.954v2.229h1.954v9.085c0 .215.042.515.127.9.085.386.34.772.68 1.2.382.386.934.729 1.657.986.722.257 1.699.386 2.93.386h.128v-2.314h-.212c-.553 0-.977-.043-1.317-.172-.34-.128-.552-.257-.722-.428-.17-.172-.298-.343-.298-.472-.042-.214-.085-.343-.085-.514V8.186h2.634V5.957h-2.634V2.314zM22.938 7.329c-.382-.386-.934-.729-1.614-.986-.722-.257-1.7-.386-2.931-.386-1.232 0-2.251.129-2.931.386-.722.257-1.274.6-1.657.986-.382.385-.637.771-.68 1.157-.084.385-.127.643-.127.9V20.7h.128c1.316 0 2.59-.857 2.76-2.486V9.771c0-.128.043-.257.086-.471.042-.171.17-.3.34-.471.17-.129.424-.258.807-.386.34-.129.807-.172 1.359-.172.552 0 .977.043 1.274.172.34.128.552.257.765.428.17.172.255.343.297.472.043.171.085.343.085.514V20.7h2.889V9.386c0-.215-.043-.515-.128-.9-.127-.386-.34-.815-.722-1.157M35.724 10.243c0-.686.17-1.2.552-1.586.382-.386 1.105-.557 2.166-.557 1.02 0 1.742.171 2.124.514.383.343.553.772.553 1.5 0 .343-.043.643-.213.986a1.633 1.633 0 0 1-.467.6c-.255.171-.51.343-.807.386-.552.128-2.846.257-3.144.343-.17.042-.297.085-.51.171a.545.545 0 0 0-.297.386v-2.743h.043zm-1.53 9.686c.893.642 2.252.942 4.036.942.935 0 1.614-.085 2.294-.257.68-.171 1.232-.428 1.657-.728.424-.3.764-.686.977-1.115.212-.428.297-.9.297-1.371v-.814h-2.719v.128c0 .515-.17 1.029-.51 1.372-.297.343-1.061.514-2.08.514-.51 0-.893-.043-1.233-.129-.34-.085-.594-.214-.764-.385-.213-.172-.34-.3-.383-.472a1.15 1.15 0 0 1-.127-.514v-.643c0-.214.042-.557.127-.728.085-.172.128-.429.255-.515.128-.128.213-.214.34-.257.17-.086.255-.128.382-.171.17-.043.255-.086.595-.129.34-.043 3.398-.428 3.738-.557.765-.257 1.36-.686 1.784-1.243.425-.6.637-1.457.637-2.143V9.43c0-.343-.085-.729-.212-1.115a2.725 2.725 0 0 0-.85-1.157c-.424-.343-.977-.643-1.656-.857-.722-.214-1.572-.343-2.676-.343-1.105 0-1.997.129-2.676.343-.68.214-1.232.514-1.657.857-.382.343-.68.729-.85 1.157-.17.429-.212.772-.212 1.115v8.057c.17.943.595 1.8 1.487 2.443zM8.198 16.586c0 .685-.17 1.2-.552 1.585-.382.386-1.104.558-2.166.558-1.02 0-1.742-.172-2.124-.515-.383-.343-.552-.771-.552-1.5 0-.343.042-.643.212-.985.127-.258.255-.429.467-.6.255-.172.51-.3.807-.386.552-.129 2.846-.214 3.144-.343.127-.043.297-.086.467-.171a.545.545 0 0 0 .297-.386v2.743zM9.685 6.9c-.892-.643-2.251-.943-4.035-.943-.935 0-1.615.086-2.294.257-.68.172-1.232.429-1.657.729-.425.3-.764.686-.977 1.114A3.07 3.07 0 0 0 .425 9.43v.814h2.718v-.129c0-.514.17-.985.51-1.371.297-.343 1.062-.514 2.082-.514.51 0 .892.042 1.231.128.298.086.595.214.765.386.17.171.34.343.382.471.085.172.128.343.128.515v.642c0 .215-.043.558-.128.729-.042.171-.127.429-.255.514-.127.129-.212.215-.34.257a2.67 2.67 0 0 1-.382.172c-.17.086-.255.086-.637.128-.34.043-3.356.429-3.738.558-.765.257-1.36.685-1.784 1.242-.425.6-.637 1.458-.637 2.143V17.4c0 .343.085.729.212 1.114.17.429.425.815.85 1.157.425.343.977.6 1.656.858.68.214 1.572.342 2.677.342 1.104 0 1.996-.085 2.676-.342.68-.215 1.231-.515 1.656-.858.383-.342.68-.728.85-1.157.17-.428.212-.771.212-1.114V9.386c-.127-.986-.552-1.843-1.444-2.486z"/>
            <path fill="#EEB111" d="M11.002 6.043c.382-1.886 4.333-1.072 5.564-2.572.298-.385.553-1.5.043-2.314-.255-.428-.637-.686-1.317-.771a8.189 8.189 0 0 0-2.506 0c-1.147.171-1.784.857-1.784 2.228v3.429"/>
        </g>
    </g>
</svg>
