<svg xmlns="http://www.w3.org/2000/svg" width="22" height="22" viewBox="0 0 22 22">
    <path fill="#417505" fill-rule="nonzero" d="M18.16 5.095l-9.381 9.952-4.399-4.04a.764.764 0 0 0-1.033 1.126l4.954 4.55a.762.762 0 0 0 1.073-.04l9.897-10.5a.764.764 0 1 0-1.112-1.048zM19.19.015H2.81A2.797 2.797 0 0 0 .015 2.81v16.382a2.797 2.797 0 0 0 2.794 2.794H19.19a2.797 2.797 0 0 0 2.794-2.794V2.81A2.797 2.797 0 0 0 19.19.015zm1.266 19.176c0 .698-.568 1.266-1.266 1.266H2.809a1.267 1.267 0 0 1-1.266-1.266V2.81c0-.698.567-1.266 1.266-1.266H19.19c.698 0 1.266.567 1.266 1.266V19.19z"/>
</svg>
