<svg xmlns="http://www.w3.org/2000/svg" width="50" height="63" viewBox="0 0 50 63">
    <g fill="#FFF" fill-rule="nonzero">
        <path d="M49.258 12.666L47.55 3.575c-.54-2.181-2.437-3.668-4.558-3.57H6.351c-2.12-.098-4.018 1.389-4.558 3.57l-1.72 9.079c-.058.3-.081.607-.07.914v5.942c.116 2.165 1.7 3.916 3.732 4.126l3.489 34.711c.211 2.419 2.132 4.26 4.418 4.238h26c2.244.001 4.129-1.794 4.372-4.163l3.582-34.7c2.035-.21 3.621-1.968 3.732-4.138V13.58a4.114 4.114 0 0 0-.07-.914zm-46.907.507l1.721-9.08C4.403 3.051 5.368 2.39 6.398 2.5h36.57c1.03-.11 1.994.551 2.325 1.593l1.686 9.08c.079.44-.037.896-.314 1.235-.5.59-1.218.915-1.965.89H4.63a2.467 2.467 0 0 1-1.965-.89 1.536 1.536 0 0 1-.314-1.235zm37.35 44.915c-.09 1.139-.983 2.017-2.059 2.026h-26c-1.062.006-1.956-.842-2.07-1.964L6.084 23.772h37.21L39.7 58.088zm5.127-36.824H4.526c-1.036.114-1.98-.64-2.163-1.73v-2.371c.72.39 1.517.593 2.326.593H44.7c.809 0 1.606-.203 2.326-.593v2.36c-.178 1.104-1.138 1.868-2.186 1.74h-.012z"/>
        <path d="M28.872 32.118c-.642 0-1.163.553-1.163 1.236 0 .682.52 1.235 1.163 1.235h3.581c.643 0 1.163-.553 1.163-1.235v-3.805c0-.682-.52-1.235-1.163-1.235-.642 0-1.162.553-1.162 1.235v.729c-4.409-3.275-10.393-2.718-14.198 1.321-.395.49-.369 1.221.061 1.677.43.457 1.117.485 1.579.065 2.927-3.11 7.5-3.624 10.976-1.235h-.837v.012zM22.686 48.906c-3.995-1.14-6.702-5.085-6.5-9.475l.419.766c.334.559 1.023.738 1.563.407s.737-1.056.448-1.642l-1.79-3.286a1.175 1.175 0 0 0-.698-.568 1.103 1.103 0 0 0-.884.123l-3.093 1.903c-.526.355-.695 1.087-.383 1.66.312.573.994.783 1.546.477l.64-.383c-.437 5.661 2.982 10.85 8.139 12.353.422.227.931.16 1.289-.169.357-.33.49-.856.338-1.332-.153-.475-.562-.805-1.034-.834zM34.256 35.972c-.62.175-.988.85-.826 1.507 1.07 4.248-.794 8.714-4.477 10.723l.42-.741c.288-.587.09-1.311-.45-1.643-.539-.33-1.228-.151-1.563.407l-1.779 3.261c-.32.584-.138 1.333.407 1.68l3.082 1.915c.552.307 1.234.097 1.545-.476.312-.573.143-1.306-.382-1.66l-.593-.36c4.88-2.418 7.42-8.21 6.023-13.736-.165-.651-.791-1.041-1.407-.877zM24.79 12.267c2.93 0 5.408-.828 6.466-2.15a2.576 2.576 0 0 0 .57-2.013c-.36-2.347-3.896-3.41-6.977-3.41-3.082 0-6.675 1.063-6.977 3.41a2.576 2.576 0 0 0 .57 2.014c.942 1.321 3.418 2.149 6.349 2.149zm0-5.102c2.826 0 4.477.914 4.722 1.322-.245.408-1.85 1.31-4.721 1.31-2.872 0-4.651-.976-4.744-1.236.139-.407 1.802-1.396 4.744-1.396z"/>
    </g>
</svg>
