<svg xmlns="http://www.w3.org/2000/svg" width="21" height="19" viewBox="0 0 21 19">
    <g fill="none" fill-rule="evenodd" stroke="#FFF">
        <path fill="#FFF" fill-rule="nonzero" d="M16.17 9.757c0 .128-.115.242-.254.25h-4.904l.007 4.81c.008.135-.109.249-.254.249a.25.25 0 0 1-.182-.078.24.24 0 0 1-.08-.179v-4.803H5.439a.25.25 0 0 1-.182-.078.24.24 0 0 1-.08-.178c-.008-.136.109-.25.254-.25h5.065l.007-4.953c-.007-.135.109-.25.255-.25a.246.246 0 0 1 .254.25L11.005 9.5l4.911.007a.246.246 0 0 1 .255.25z"/>
        <rect width="20" height="18" x=".5" y=".5" rx="5"/>
    </g>
</svg>
