<?xml version="1.0" encoding="UTF-8" standalone="no"?>
<svg
   xmlns:dc="http://purl.org/dc/elements/1.1/"
   xmlns:cc="http://creativecommons.org/ns#"
   xmlns:rdf="http://www.w3.org/1999/02/22-rdf-syntax-ns#"
   xmlns:svg="http://www.w3.org/2000/svg"
   xmlns="http://www.w3.org/2000/svg"
   xmlns:sodipodi="http://sodipodi.sourceforge.net/DTD/sodipodi-0.dtd"
   xmlns:inkscape="http://www.inkscape.org/namespaces/inkscape"
   width="21"
   height="19"
   viewBox="0 0 21 19"
   id="svg2"
   version="1.1"
   inkscape:version="0.48.4 r9939"
   sodipodi:docname="expand2.svg">
  <metadata
     id="metadata14">
    <rdf:RDF>
      <cc:Work
         rdf:about="">
        <dc:format>image/svg+xml</dc:format>
        <dc:type
           rdf:resource="http://purl.org/dc/dcmitype/StillImage" />
      </cc:Work>
    </rdf:RDF>
  </metadata>
  <defs
     id="defs12" />
  <sodipodi:namedview
     pagecolor="#ffffff"
     bordercolor="#666666"
     borderopacity="1"
     objecttolerance="10"
     gridtolerance="10"
     guidetolerance="10"
     inkscape:pageopacity="0"
     inkscape:pageshadow="2"
     inkscape:window-width="1313"
     inkscape:window-height="744"
     id="namedview10"
     showgrid="false"
     inkscape:zoom="12.421053"
     inkscape:cx="10.5"
     inkscape:cy="9.5"
     inkscape:window-x="53"
     inkscape:window-y="24"
     inkscape:window-maximized="1"
     inkscape:current-layer="svg2" />
  <g
     fill="none"
     fill-rule="evenodd"
     stroke="#FFF"
     id="g4"
     style="stroke:#241c1c">
    <path
       fill="#FFF"
       fill-rule="nonzero"
       d="M16.17 9.757c0 .128-.115.242-.254.25h-4.904l.007 4.81c.008.135-.109.249-.254.249a.25.25 0 0 1-.182-.078.24.24 0 0 1-.08-.179v-4.803H5.439a.25.25 0 0 1-.182-.078.24.24 0 0 1-.08-.178c-.008-.136.109-.25.254-.25h5.065l.007-4.953c-.007-.135.109-.25.255-.25a.246.246 0 0 1 .254.25L11.005 9.5l4.911.007a.246.246 0 0 1 .255.25z"
       id="path6"
       style="stroke:#241c1c" />
    <rect
       width="20"
       height="18"
       x=".5"
       y=".5"
       rx="5"
       id="rect8"
       style="stroke:#241c1c" />
  </g>
</svg>
