<svg xmlns="http://www.w3.org/2000/svg" xmlns:xlink="http://www.w3.org/1999/xlink" width="34" height="34" viewBox="0 0 34 34">
    <defs>
        <path id="a" d="M0 0h34v34H0z"/>
    </defs>
    <g fill="none" fill-rule="evenodd">
        <g>
            <use fill="#FFF" xlink:href="#a"/>
            <path stroke="#979797" stroke-opacity=".306" d="M.5.5h33v33H.5z"/>
        </g>
        <path fill="#4A4A4A" fill-rule="nonzero" d="M5.49 18.843h1.528a9.905 9.905 0 0 0 8.579 8.491v1.177a1.098 1.098 0 1 0 2.197 0v-1.148c4.558-.45 8.214-4.008 8.818-8.52h1.29a1.098 1.098 0 1 0 0-2.197h-1.24c-.418-4.72-4.163-8.496-8.868-8.96V6.537a1.098 1.098 0 1 0-2.197 0v1.177c-4.592.567-8.218 4.293-8.629 8.93H5.49a1.098 1.098 0 1 0 0 2.198zM15.596 9.94v.993a1.098 1.098 0 1 0 2.197 0v-1.03a7.698 7.698 0 0 1 6.657 6.743h-1.384a1.098 1.098 0 1 0 0 2.197h1.317a7.698 7.698 0 0 1-6.59 6.302v-1.029a1.098 1.098 0 1 0-2.197 0v.993a7.698 7.698 0 0 1-6.35-6.266h1.076a1.098 1.098 0 1 0 0-2.197H9.18c.391-3.425 3.04-6.165 6.418-6.706z"/>
    </g>
</svg>
