<svg xmlns="http://www.w3.org/2000/svg" width="21" height="29" viewBox="0 0 21 29">
    <g fill="#000" fill-rule="evenodd">
        <path d="M4.352 9.952l.862.71c.238-.235.5-.454.778-.651l-.719-.83c-.33.232-.639.492-.92.771zM4.897 18.013l-.92.648c.258.298.545.579.853.834l.787-.779a6.036 6.036 0 0 1-.72-.703zM10.645 8.845l.14-1.047a8.553 8.553 0 0 0-1.223-.043l-.038.001.078 1.053a7.09 7.09 0 0 1 1.043.036zM2.454 13.679c-.114.605-.053 1.021-.049 1.12l1.166-.045c-.004-.084-.059-.437.04-.947l-1.158-.128zM9.096 20.168l-.144 1.046c.616.14 1.121.05 1.231.045l-.104-1.052a6.466 6.466 0 0 1-.983-.04zM17.297 15.349a6.13 6.13 0 0 0 .05-1.133l-.001-.025-1.165.07a5.208 5.208 0 0 1-.042.957l1.158.13zM14.91 9.51l-.785.78c.262.215.504.452.722.702l.918-.65a7.1 7.1 0 0 0-.855-.832zM13.75 19.01l.717.832a7.3 7.3 0 0 0 .923-.77l-.86-.712c-.24.235-.502.454-.78.65zM13.222 14.251H10.5v-3.163c0-.291-.261-.527-.583-.527-.322 0-.584.236-.584.527v3.3s-.024.427.065.566c.161.252.391.351.713.351h3.111c.322 0 .584-.235.584-.527 0-.291-.262-.527-.584-.527z"/>
        <path d="M19.833 12.845h-.656c-.433-1.876-1.543-3.53-3.089-4.744l-.532-5.298c-.016-1.054-.97-1.907-2.14-1.907H6.029c-1.18 0-2.14.867-2.138 1.9l-.36 5.372C1.565 9.747.324 12.046.324 14.602c0 2.552 1.235 4.847 3.193 6.425l.372 5.613c0 1.095.98 2.02 2.139 2.02h7.389c1.15 0 2.123-.91 2.139-1.995l.557-5.58c1.533-1.211 2.633-2.858 3.065-4.725h.655c.539 0 1.167-.323 1.167-1.23v-1.055c0-.908-.628-1.23-1.167-1.23zM5.056 2.83c0-.485.436-.879.972-.879h7.389c.536 0 .972.394.972.879l.444 4.437a10.23 10.23 0 0 0-4.98-1.274c-1.875 0-3.623.493-5.099 1.341l.302-4.504zm9.335 23.763l-.002.048c0 .506-.463.966-.972.966h-7.39c-.508 0-.971-.46-.972-.998l-.314-4.744c1.479.853 3.231 1.35 5.111 1.35 1.835 0 3.55-.473 5.005-1.289l-.466 4.667zM9.852 22.16c-4.61 0-8.361-3.39-8.361-7.557 0-4.166 3.75-7.556 8.361-7.556 1.93 0 3.703.6 5.12 1.595l.003.034.042-.003c1.942 1.385 3.196 3.526 3.196 5.93 0 4.167-3.75 7.557-8.36 7.557zm9.96-6.854h-.467a15.63 15.63 0 0 0 0-1.405h.467c.01 0 .01 1.372 0 1.405z"/>
    </g>
</svg>
