<svg xmlns="http://www.w3.org/2000/svg" width="166" height="171" viewBox="0 0 166 171">
    <defs>
        <path id="a" d="M29.199.092v20.18H.469V.091h28.73z"/>
    </defs>
    <g fill="none" fill-rule="evenodd">
        <path fill="#579A00" d="M29.804 49.79l11.31 4.694C16.578 74.327 21.481 156.05 100.86 133.44l-5.975-11.101c-53.56 16.433-62.734-40.118-46.517-55.477 0 5.201.427 6.61.427 6.61h12.8l-.21-26.673-28.167-9.167-3.414 12.158zM137.223 120.21l-11.31-4.694c24.54-19.843 19.635-101.569-59.746-78.954l5.974 11.1c53.562-16.434 62.737 40.113 46.52 55.478 0-5.207-.426-6.615-.426-6.615h-12.81l.217 26.674 28.162 9.171 3.419-12.16zM24.466 70.842c0 3.486-1.418 9.958-1.418 9.958L0 75.822V66.29s15.721-2.2 24.466 4.553"/>
        <path fill="#579A00" d="M5.406 122.907l5.122 8.82s17.285-7.683 19.347-11.663c2.06-6.26-7.396-9.102-7.396-9.102L5.406 122.907zM58.328 170.948l-7.687-7.353s5.413-19.635 11.666-22.765c2.16 5.62 4.557 12.52 4.557 12.52l-8.536 17.598zM100.86 145.102l8.11 16.498 9.672-3.41-8.889-17.354zM139.696 51.638c1.425 4.765 2.487 6.902 2.845 8.539 7.76.919 22.767-7.118 22.767-7.118l-4.559-9.954s-21.024 6.103-21.053 8.533M98.443 21.905s8.32 2.919 11.097 4.554l7.683-21.91L107.83 0l-9.387 21.905zM41.536 15.077l9.105-5.69 9.679 18.781-9.39 4.265z"/>
    </g>
</svg>
