<svg xmlns="http://www.w3.org/2000/svg" width="33" height="42" viewBox="0 0 33 42">
    <g fill="#FFF" fill-rule="nonzero">
        <path d="M32.51 8.444l-1.128-6.061C31.026.929 29.774-.062 28.374.003H4.192c-1.4-.065-2.652.926-3.008 2.38L.048 8.436a2.77 2.77 0 0 0-.046.61v3.96c.077 1.444 1.122 2.611 2.463 2.751l2.303 23.141c.14 1.612 1.407 2.84 2.916 2.825h17.16c1.48.001 2.725-1.195 2.885-2.775l2.364-23.133c1.344-.14 2.39-1.313 2.464-2.76V9.055a2.77 2.77 0 0 0-.046-.61zm-30.958.338l1.136-6.053c.218-.695.855-1.135 1.535-1.062h24.136c.68-.073 1.316.367 1.535 1.062l1.112 6.053c.052.294-.024.597-.207.823-.33.393-.804.61-1.297.593H3.056c-.492.017-.967-.2-1.297-.593a1.032 1.032 0 0 1-.207-.823zm24.65 29.943c-.06.76-.648 1.345-1.358 1.35H7.684c-.701.005-1.291-.56-1.366-1.308l-2.303-22.92h24.559l-2.372 22.878zm3.385-24.55h-26.6c-.684.077-1.306-.426-1.427-1.152v-1.581c.475.26 1 .395 1.534.395h26.408c.534 0 1.06-.135 1.535-.395v1.573c-.118.736-.75 1.246-1.443 1.16h-.007z"/>
        <path d="M16.362 8.178c1.934 0 3.568-.552 4.267-1.433a1.73 1.73 0 0 0 .376-1.342C20.767 3.838 18.434 3.13 16.4 3.13c-2.033 0-4.405.708-4.604 2.273-.068.485.07.977.376 1.342.621.881 2.256 1.433 4.19 1.433zm0-3.401c1.865 0 2.955.61 3.116.881-.161.272-1.22.873-3.116.873-1.896 0-3.07-.65-3.131-.824.092-.271 1.19-.93 3.13-.93z"/>
    </g>
</svg>
