<svg xmlns="http://www.w3.org/2000/svg" width="20" height="33" viewBox="0 0 20 33">
    <g fill="#000" fill-rule="evenodd">
        <path d="M19.753 13.95l-.683-3.47a1.808 1.808 0 0 0-1.823-1.363h-2.945c.214-.699.084-1.46-.349-2.046l.642-1.126a1.2 1.2 0 0 0-.432-1.627 1.167 1.167 0 0 0-1.605.439l-.642 1.126a2.18 2.18 0 0 0-2.149 1.023l-1.265 2.22H2.591A1.808 1.808 0 0 0 .767 10.49L.08 13.954a1.5 1.5 0 0 0-.028.35v2.267c.047.826.68 1.494 1.493 1.574L2.94 31.392c.089.92.856 1.617 1.767 1.608h10.4c.898 0 1.651-.684 1.749-1.589l1.432-13.242a1.668 1.668 0 0 0 1.493-1.58V14.3a1.5 1.5 0 0 0-.028-.35zm-9.167-6.572c.335-.49.947-.701 1.507-.519a.463.463 0 0 0 .507-.221l.8-1.415a.271.271 0 0 1 .262.006c.08.046.133.131.138.225L13 6.87a.477.477 0 0 0 .023.556c.428.4.55 1.036.303 1.57l-2.214 3.884a6.848 6.848 0 0 1-2.433 0 1.385 1.385 0 0 1-.307-1.607l2.214-3.894zM.991 14.143l.688-3.465a.888.888 0 0 1 .93-.608h5.377l-.419.74a1.96 1.96 0 0 0-.214.594 1.167 1.167 0 0 0-.772 1.018c0 1.042 1.73 1.518 3.335 1.518s3.335-.471 3.335-1.518a.985.985 0 0 0-.358-.735l.93-1.613h3.424a.888.888 0 0 1 .93.609l.665 3.46a.566.566 0 0 1-.126.471c-.2.225-.487.35-.786.34H1.902a1.008 1.008 0 0 1-.786-.34.566.566 0 0 1-.125-.471zm14.94 17.141a.837.837 0 0 1-.824.773h-10.4a.832.832 0 0 1-.828-.75l-1.395-13.12h14.883L15.93 31.285zm2.05-14.053H1.861a.792.792 0 0 1-.866-.66v-.905c.288.148.607.226.93.226H17.93c.324 0 .642-.078.93-.226v.9a.797.797 0 0 1-.874.66l-.005.005z"/>
        <path d="M11.549 21.488a.468.468 0 0 0-.465.471c0 .26.208.472.465.472h1.432a.468.468 0 0 0 .466-.472v-1.452a.468.468 0 0 0-.466-.471.468.468 0 0 0-.465.471v.278a4.402 4.402 0 0 0-5.679.505.476.476 0 0 0 .025.64.46.46 0 0 0 .631.024 3.481 3.481 0 0 1 4.39-.471h-.334v.005zM9.074 27.894c-1.598-.435-2.68-1.94-2.6-3.615l.168.292c.134.213.41.282.625.155a.475.475 0 0 0 .18-.627l-.717-1.254a.46.46 0 0 0-.637-.174l-1.237.726a.475.475 0 0 0-.153.634.462.462 0 0 0 .618.182l.26-.142c-.174 2.16 1.194 4.141 3.256 4.714a.46.46 0 0 0 .516-.064.476.476 0 0 0 .135-.508.466.466 0 0 0-.414-.319zM13.702 22.959a.472.472 0 0 0-.33.575c.428 1.62-.318 3.325-1.79 4.092l.167-.283a.475.475 0 0 0-.18-.627.461.461 0 0 0-.625.155l-.711 1.245a.475.475 0 0 0 .162.641l1.233.73c.22.118.493.038.618-.18a.475.475 0 0 0-.153-.635l-.237-.136c1.952-.923 2.968-3.134 2.41-5.243a.465.465 0 0 0-.564-.334zM14.256 2.984a.463.463 0 0 0 .33-.155 5.331 5.331 0 0 1 3.819-1.603.468.468 0 0 0 .465-.472.468.468 0 0 0-.465-.471 6.246 6.246 0 0 0-4.475 1.886.476.476 0 0 0-.113.52c.072.181.246.298.439.295zM18.405 2.593A4.015 4.015 0 0 0 15.53 3.8a.475.475 0 0 0 .194.816.461.461 0 0 0 .462-.152 3.1 3.1 0 0 1 2.219-.942.463.463 0 0 0 .469-.206.477.477 0 0 0 0-.518.463.463 0 0 0-.47-.205z"/>
        <path fill-rule="nonzero" stroke="#000" d="M18.813 8.407c-.22-.22-.573-.22-.77 0l-7.444 7.421-7.641-7.663c-.22-.22-.573-.22-.77 0-.221.22-.221.573 0 .77l7.64 7.664-7.663 7.663c-.22.22-.22.573 0 .771a.53.53 0 0 0 .397.154.53.53 0 0 0 .396-.154l7.663-7.663 7.421 7.42a.53.53 0 0 0 .396.155.53.53 0 0 0 .397-.154c.22-.22.22-.573 0-.77l-7.443-7.422 7.42-7.42c.199-.221.199-.573 0-.772z"/>
    </g>
</svg>
