<svg xmlns="http://www.w3.org/2000/svg" width="16" height="16" viewBox="0 0 16 16">
    <path fill="#FFF" fill-rule="evenodd" d="M14.62 13.223l-3.938-3.145a5.878 5.878 0 0 0 1.164-3.504c0-3.212-2.619-5.84-5.819-5.84C2.827.733.21 3.361.21 6.573c0 3.212 2.618 5.84 5.818 5.84 1.32 0 2.529-.449 3.491-1.168l3.133 3.954c.761.809 1.701.606 2.171 0 .492-.607.604-1.213-.201-1.977zm-8.593-2.606C3.812 10.617 2 8.797 2 6.574c0-2.224 1.813-4.044 4.028-4.044 2.216 0 4.028 1.82 4.028 4.044 0 2.224-1.812 4.043-4.028 4.043z"/>
</svg>
