<svg xmlns="http://www.w3.org/2000/svg" xmlns:xlink="http://www.w3.org/1999/xlink" width="57" height="21" viewBox="0 0 57 21">
    <defs>
        <rect id="a" width="277" height="60" rx="7"/>
        <path id="b" d="M13.165.17H0v13.749h13.165V.169z"/>
        <path id="d" d="M13.165.17H0v13.749h13.165V.169z"/>
        <path id="f" d="M40.652.17H.032v13.749h40.62z"/>
        <path id="h" d="M29.132 20.744H56.92V.169H0v20.575h29.132V16.53h-2.468v4.214h2.468z"/>
    </defs>
    <g fill="none" fill-rule="evenodd">
        <g transform="translate(-207 -18)">
            <use fill="#FFF" xlink:href="#a"/>
            <rect width="276" height="59" x=".5" y=".5" stroke="#417505" rx="7"/>
        </g>
        <text fill="#000" font-family="Roboto-Medium, Roboto" font-size="16" font-weight="400" transform="translate(-207 -18)">
            <tspan x="13" y="26">Juntalámparas</tspan>
        </text>
        <text fill="#78A04D" font-family="Roboto-Medium, Roboto" font-size="13" font-weight="400" transform="translate(-207 -18)">
            <tspan x="13" y="47">UTE</tspan>
        </text>
        <g>
            <path fill="#FEFEFE" d="M0 14.006h13.164V.256H0z"/>
            <g transform="translate(0 .087)">
                <mask id="c" fill="#fff">
                    <use xlink:href="#b"/>
                </mask>
                <path fill="#FBEA31" d="M13.165 13.919H0v-8.02C1.504 3.226 3.386 1.316 5.265.17h7.9v13.75z" mask="url(#c)"/>
            </g>
            <path fill="#FFD632" d="M13.165 14.006H.752c0-6.875 5.642-12.984 12.413-12.984v12.984z"/>
            <path fill="#F7AB02" d="M13.165 14.006H4.137c0-5.347 4.137-9.548 9.028-9.548v9.548z"/>
            <path fill="#F3970A" d="M13.165 14.006H7.147c0-3.437 2.632-6.492 6.018-6.492v6.492z"/>
            <g transform="translate(0 .087)">
                <mask id="e" fill="#fff">
                    <use xlink:href="#d"/>
                </mask>
                <path fill="#223877" d="M13.165 4.371v-1.91l-1.129-1.145h.752L12.036.169H9.779l3.386 4.202zm0 3.436V6.281l-1.882-1.91h.753L9.403 1.7h.376L8.274.169h-1.88L11.66 5.9l1.505 1.908zm0 2.675l-.377-.764-1.881-1.526c0-.385.376-.385.376-.385l-2.256-2.29s0-.382.376-.382l-2.256-2.29h.376L5.265.169H3.01l10.155 11.078v-.765zm-10.53 3.437h1.502-.376v-.382l-2.633-2.673.376-.382L0 8.955v2.292l2.634 2.672zm-1.883 0v-.382L0 12.392v1.527h.752zm6.395 0l-2.634-2.672v-.383L2.256 8.192v-.385L0 5.517h.375L0 5.134v2.672l5.642 6.112h1.505zm6.018 0L9.027 9.336v-.381l-1.88-1.91v-.381L5.265 4.37V3.99L3.385 1.7 2.256.169H0v.384l1.88 2.292 2.257 2.29 8.65 8.784h.378zm-3.386 0l-2.256-2.291v-.381L5.642 8.955v-.383l-2.256-2.29c0-.383.375-.383.375-.383L1.504 3.607c.377 0 .377-.381.377-.381L0 1.316V4.37l9.027 9.548h.752z" mask="url(#e)"/>
            </g>
            <g transform="translate(16.142 .087)">
                <mask id="g" fill="#fff">
                    <use xlink:href="#f"/>
                </mask>
                <path fill="#1C75BB" d="M10.563 9.336V.17h-1.88v8.022H6.048V.17H.032v9.549c0 2.293 1.879 4.2 4.137 4.2h7.899c1.503 0 1.879-.381 2.632-1.907H4.17c-1.128 0-2.258-.764-2.258-2.293V2.08h2.258v7.256c0 .382.376.382.751.382h4.891c.375 0 .752 0 .752-.382zM14.7 5.9V2.08h11.283V5.9h1.88V.17H12.82V5.9H14.7zm25.952 8.02V.169H30.12v1.91h8.652v2.292H30.12V5.9h8.652v2.292H30.12v1.91h8.652v1.91H25.983v1.908h14.669zm-23.32 0h6.02V4.37H21.47v7.64h-2.258v-7.64h-1.88v9.548z" mask="url(#g)"/>
            </g>
            <path fill="#1C1C1A" d="M2.545 19.593H.546v-3.968h.66v3.423h1.446zM4.442 18.222c-.622 0-.808.183-.808.55 0 .276.147.448.395.448.198 0 .39-.12.514-.304l.011-.688s-.067-.006-.112-.006zm.643 1.49a.674.674 0 0 1-.39-.389.964.964 0 0 1-.785.355c-.655 0-.948-.366-.948-.871 0-.671.497-1.01 1.411-1.01h.193v-.154c0-.333-.057-.51-.396-.51-.412 0-.852.332-.852.332l-.277-.453c.429-.275.785-.395 1.214-.395.446 0 .745.166.87.481.05.126.05.281.045.711l-.011.832c-.006.39.028.516.248.67l-.322.402zM8.398 17.098c-.35 0-.542.281-.542.751h1.056c0-.47-.203-.75-.514-.75zm-.547 1.216v.046c0 .401.146.825.706.825.265 0 .496-.097.71-.287l.244.385a1.53 1.53 0 0 1-1.028.384c-.807 0-1.316-.59-1.316-1.52 0-.51.108-.848.356-1.135.232-.27.514-.39.875-.39.283 0 .542.075.785.298.249.23.373.585.373 1.262v.132H7.851zM11.797 19.593v-1.927c0-.396-.09-.505-.328-.505-.18 0-.44.138-.627.327v2.105h-.61V17.46c0-.304-.028-.482-.107-.689l.565-.16a.86.86 0 0 1 .102.413c.304-.264.57-.402.875-.402.44 0 .745.27.745.803v2.168h-.615zM14.376 17.098c-.35 0-.542.281-.542.751h1.056c0-.47-.203-.75-.514-.75zm-.547 1.216v.046c0 .401.146.825.705.825.266 0 .497-.097.711-.287l.244.385a1.53 1.53 0 0 1-1.028.384c-.808 0-1.316-.59-1.316-1.52 0-.51.107-.848.356-1.135.231-.27.514-.39.875-.39.283 0 .542.075.785.298.248.23.373.585.373 1.262v.132h-1.705zM17.543 17.241c-.062-.022-.108-.04-.175-.04-.26 0-.48.195-.537.43v1.962h-.621v-2.048c0-.367-.04-.602-.101-.78l.57-.148c.067.131.107.298.107.458.226-.315.452-.464.728-.464.09 0 .147.011.22.046l-.191.584zM19.078 17.098c-.316 0-.491.178-.491.505 0 .333.186.487.491.487.322 0 .491-.172.491-.493 0-.327-.164-.499-.491-.499m1.186.058a.776.776 0 0 1-.22-.03.77.77 0 0 1 .186.505c0 .505-.412.89-1.084.89-.203.074-.384.183-.384.275 0 .108.04.12.711.12.458 0 .949.235.949.826 0 .619-.508.951-1.27.951-.74 0-1.277-.246-1.277-.79 0-.139.057-.31.057-.31h.587s-.045.114-.045.206c0 .27.226.419.627.419.44 0 .677-.184.677-.454 0-.315-.26-.4-.79-.4-.768 0-.938-.156-.938-.442 0-.287.237-.402.542-.5-.429-.125-.65-.406-.65-.82 0-.59.458-.98 1.142-.98.406 0 .638.15.87.15a.8.8 0 0 0 .519-.202l.288.396a.697.697 0 0 1-.497.19M21.127 19.593v-2.856l.626-.115v2.97h-.626zm-.034-3.212l-.192-.36 1.152-.758.282.534-1.242.584zM23.938 18.222c-.621 0-.807.183-.807.55 0 .276.146.448.395.448.197 0 .39-.12.514-.304l.01-.688s-.067-.006-.112-.006zm.644 1.49a.674.674 0 0 1-.39-.389.964.964 0 0 1-.785.355c-.655 0-.948-.366-.948-.871 0-.671.497-1.01 1.411-1.01h.192v-.154c0-.333-.056-.51-.395-.51-.412 0-.853.332-.853.332l-.276-.453c.428-.275.785-.395 1.214-.395.446 0 .745.166.87.481.05.126.05.281.045.711l-.012.832c-.006.39.029.516.249.67l-.322.402z"/>
            <g transform="translate(0 .087)">
                <mask id="i" fill="#fff">
                    <use xlink:href="#h"/>
                </mask>
                <path fill="#1C1C1A" d="M28.47 17.35a.7.7 0 0 0-.547-.287c-.418 0-.587.373-.587.952 0 .814.237 1.037.604 1.037.215 0 .418-.137.53-.315V17.35zm.594.08v3.16l-.587.154v-1.078c0-.206.01-.384.01-.384a.897.897 0 0 1-.671.293c-.622 0-1.152-.465-1.152-1.457 0-1.003.435-1.588 1.152-1.588.293 0 .582.131.728.355a.77.77 0 0 1 .051-.28h.537c-.045.177-.068.481-.068.825z" mask="url(#i)"/>
            </g>
            <path fill="#1C1C1A" d="M31.87 19.684a.642.642 0 0 1-.249-.361 1.03 1.03 0 0 1-.813.356c-.322 0-.57-.115-.712-.287-.113-.138-.158-.327-.158-.688v-1.967l.61-.115v1.944c0 .361.05.625.418.625.209 0 .463-.172.559-.378v-2.076l.599-.115v2.185c0 .436.175.579.175.579l-.43.298zM34.087 17.098c-.35 0-.542.281-.542.751h1.056c0-.47-.203-.75-.514-.75zm-.547 1.216v.046c0 .401.146.825.705.825.266 0 .497-.097.712-.287l.243.385a1.53 1.53 0 0 1-1.028.384c-.808 0-1.316-.59-1.316-1.52 0-.51.107-.848.356-1.135.231-.27.514-.39.875-.39.283 0 .542.075.785.298.249.23.373.585.373 1.262v.132H33.54zM38.755 19.593v-1.927c0-.396-.09-.505-.327-.505-.181 0-.44.138-.627.327v2.105h-.61V17.46c0-.304-.028-.482-.107-.689l.565-.16a.86.86 0 0 1 .101.413c.305-.264.57-.402.876-.402.44 0 .745.27.745.803v2.168h-.616zM41.33 17.098c-.396 0-.565.304-.565 1.01 0 .842.209 1.089.581 1.089.367 0 .57-.304.57-1.032 0-.82-.225-1.067-.587-1.067m.006 2.569c-.774 0-1.26-.59-1.26-1.52 0-.928.492-1.525 1.248-1.525.814 0 1.277.614 1.277 1.531 0 .935-.492 1.514-1.265 1.514M44.118 19.673c-.35 0-.729-.115-1.096-.322l.22-.453c.254.15.605.304.926.304.271 0 .463-.166.463-.407 0-.223-.14-.338-.463-.407l-.344-.074c-.43-.092-.683-.39-.683-.797 0-.545.429-.924 1.061-.924.39 0 .7.12.943.253l-.203.436c-.265-.144-.474-.213-.7-.213-.266 0-.435.15-.435.373 0 .178.096.27.384.344l.356.092c.576.149.728.47.728.808 0 .585-.469.987-1.157.987M49.069 19.684a.643.643 0 0 1-.249-.361 1.03 1.03 0 0 1-.813.356c-.322 0-.57-.115-.711-.287-.114-.138-.159-.327-.159-.688v-1.967l.61-.115v1.944c0 .361.051.625.418.625.209 0 .463-.172.56-.378v-2.076l.598-.115v2.185c0 .436.175.579.175.579l-.43.298zM51.733 19.593v-1.927c0-.396-.09-.505-.328-.505-.18 0-.44.138-.627.327v2.105h-.61V17.46c0-.304-.028-.482-.107-.689l.565-.16a.86.86 0 0 1 .102.413c.304-.264.57-.402.875-.402.44 0 .745.27.745.803v2.168h-.615zM54.312 17.098c-.35 0-.542.281-.542.751h1.056c0-.47-.203-.75-.514-.75zm-.547 1.216v.046c0 .401.146.825.705.825.266 0 .497-.097.712-.287l.243.385c-.3.258-.644.384-1.028.384-.807 0-1.316-.59-1.316-1.52 0-.51.107-.848.356-1.135.231-.27.514-.39.875-.39.283 0 .542.075.785.298.249.23.373.585.373 1.262v.132h-1.705zM56.48 19.679a.459.459 0 0 1-.447-.47c0-.253.192-.454.435-.454.249 0 .452.201.452.453 0 .258-.203.47-.44.47"/>
        </g>
    </g>
</svg>
