<svg xmlns="http://www.w3.org/2000/svg" xmlns:xlink="http://www.w3.org/1999/xlink" width="214" height="169" viewBox="0 0 214 169">
    <defs>
        <linearGradient id="c" x1="50%" x2="50%" y1="0%" y2="100%">
            <stop offset="0%" stop-color="#B5EC45"/>
            <stop offset="100%" stop-color="#7ED321"/>
        </linearGradient>
        <path id="b" d="M0 0h320v568H0z"/>
        <filter id="a" width="102.5%" height="101.4%" x="-1.2%" y="-.4%" filterUnits="objectBoundingBox">
            <feOffset dy="2" in="SourceAlpha" result="shadowOffsetOuter1"/>
            <feGaussianBlur in="shadowOffsetOuter1" result="shadowBlurOuter1" stdDeviation="1"/>
            <feColorMatrix in="shadowBlurOuter1" values="0 0 0 0 0 0 0 0 0 0 0 0 0 0 0 0 0 0 0.287109375 0"/>
        </filter>
        <rect id="e" width="290" height="384" x="15" y="61" rx="7.2"/>
        <filter id="d" width="113.1%" height="109.9%" x="-5.9%" y="-4.7%" filterUnits="objectBoundingBox">
            <feMorphology in="SourceAlpha" operator="dilate" radius=".5" result="shadowSpreadOuter1"/>
            <feOffset dx="2" dy="1" in="shadowSpreadOuter1" result="shadowOffsetOuter1"/>
            <feGaussianBlur in="shadowOffsetOuter1" result="shadowBlurOuter1" stdDeviation="5.5"/>
            <feColorMatrix in="shadowBlurOuter1" values="0 0 0 0 0 0 0 0 0 0 0 0 0 0 0 0 0 0 0.215551404 0"/>
        </filter>
    </defs>
    <g fill="none" fill-rule="evenodd">
        <g transform="translate(-49 -110)">
            <use fill="#000" filter="url(#a)" xlink:href="#b"/>
            <use fill="url(#c)" xlink:href="#b"/>
        </g>
        <g transform="translate(-49 -110)">
            <use fill="#000" filter="url(#d)" xlink:href="#e"/>
            <use fill="#FFF" xlink:href="#e"/>
        </g>
        <path fill="#FFF" d="M133.371 101.3l-9.329-9.323 23.324-23.306 7.774 1.553 1.555 7.77z"/>
        <path stroke="#417505" stroke-linecap="round" stroke-linejoin="round" stroke-width="2.2" d="M133.371 101.3l-9.329-9.323 23.324-23.306 7.774 1.553 1.555 7.77z"/>
        <path fill="#FFF" d="M88.859 133.842h48.377V45.398H88.859z"/>
        <path fill="#7ED321" d="M81.162 19.216l-.074-12.071-11.288 6.12z"/>
        <path stroke="#417505" stroke-linecap="round" stroke-linejoin="round" stroke-width="2.2" d="M81.162 19.216l-.074-12.071-11.288 6.12z"/>
        <path fill="#7ED321" d="M184.448 51.44l2.368-7.048-7.8 1.317z"/>
        <path stroke="#417505" stroke-linecap="round" stroke-linejoin="round" stroke-width="2.2" d="M184.448 51.44l2.368-7.048-7.8 1.317z"/>
        <path fill="#7ED321" d="M56.806 149.68l2.367-7.049-7.8 1.317z"/>
        <path stroke="#417505" stroke-linecap="round" stroke-linejoin="round" stroke-width="2.2" d="M56.806 149.68l1.511-4.5.856-2.549-7.8 1.317 4.22 4.452z"/>
        <path fill="#CCEFFF" d="M116.62 26.496l3.594-6.51-7.91-.104z"/>
        <path stroke="#417505" stroke-linecap="round" stroke-linejoin="round" stroke-width="2.2" d="M116.62 26.496l3.594-6.51-7.91-.104zM41.581 25.012l2.985 4.614 5.268-1.571 2.984 4.613 5.267-1.571 2.985 4.613M164.108 137.428l1.78 5.198 5.491-.252 1.778 5.198 5.492-.25 1.779 5.197M23.193 135.067l5.41.973 2.45-4.92 5.41.973 2.45-4.917 5.41.972M178.876 25.012l-2.985 4.614-5.267-1.571-2.984 4.613-5.268-1.571-2.985 4.613"/>
        <path stroke="#417505" stroke-linejoin="round" stroke-width="2.2" d="M116.346 125.802l-3.299 2.197-3.298-2.197v-3.296l3.298-2.197 3.299 2.197z"/>
        <path fill="#7ED321" d="M144.998 8.992l-3.886-.777-.778-3.885L142.666 2l3.887.777.777 3.884z"/>
        <path stroke="#417505" stroke-linejoin="round" stroke-width="2.2" d="M144.998 8.992l-3.886-.777-.778-3.885L142.666 2l3.887.777.777 3.884z"/>
        <path fill="#7ED321" d="M190.277 138.237l-3.887-.777-.778-3.885 2.333-2.33 3.887.777.777 3.885z"/>
        <path stroke="#417505" stroke-linejoin="round" stroke-width="2.2" d="M190.277 138.237l-3.887-.777-.778-3.885 2.333-2.33 3.887.777.777 3.885z"/>
        <path stroke="#417505" stroke-linecap="round" stroke-linejoin="round" stroke-width="2.2" d="M11.895 167.901h191.31M208.702 167.901H212M2 167.901h3.298"/>
        <path fill="#7ED321" fill-opacity=".285" d="M137.236 45.398v69.766H88.859z"/>
        <path stroke="#417505" stroke-linecap="round" stroke-linejoin="round" stroke-width="2.2" d="M88.859 133.842h48.377V45.398H88.859zM88.859 115.164h48.377"/>
        <path fill="#FFF" d="M126.24 167.901V153.27l12.095-17.579-1.1-1.848h-36.282v-6.941l-12.094-7.691V96.687l-6.597-4.944-6.597 5.493v32.96l13.194 17.58V167.9zM147.13 100.332l2.2 6.592-2.2 6.592h-25.287l-3.298-6.592 3.298-6.592z"/>
        <path stroke="#417505" stroke-linecap="round" stroke-linejoin="round" stroke-width="2.2" d="M147.13 100.332l2.2 6.592-2.2 6.592h-25.287l-3.298-6.592 3.298-6.592z"/>
        <path fill="#FFF" d="M144.932 113.516l2.199 6.593-2.2 6.592h-20.89l-3.298-6.592 3.299-6.593z"/>
        <path stroke="#417505" stroke-linecap="round" stroke-linejoin="round" stroke-width="2.2" d="M144.932 113.516l2.199 6.593-2.2 6.592h-20.89l-3.298-6.592 3.299-6.593zM187.812 78.908l-4.398 2.747-4.398-2.747v-4.395l4.398-2.747 4.398 2.747z"/>
        <path fill="#7ED321" fill-opacity=".202" d="M100.953 139.885v-6.043h22.264l3.024 6.043z"/>
        <path fill="#FFF" d="M100.953 138.237v-4.396 4.396z"/>
        <path stroke="#417505" stroke-linecap="round" stroke-linejoin="round" stroke-width="2.2" d="M100.953 138.237v-4.395M126.24 167.901V153.27l12.095-17.579-1.1-1.848h-36.282v-6.941l-12.094-7.691V96.687l-6.597-4.944-6.597 5.493v32.96l13.194 17.58V167.9z"/>
        <path fill="#FFF" d="M142.733 126.7l2.199 6.593-2.199 6.592h-16.492l-3.299-6.592 3.299-6.592z"/>
        <path stroke="#417505" stroke-linecap="round" stroke-linejoin="round" stroke-width="2.2" d="M142.733 126.7l2.199 6.593-2.199 6.592h-16.492l-3.299-6.592 3.299-6.592z"/>
        <g fill="#417505" fill-rule="nonzero">
            <path d="M121.14 84.465h-3.6v-2.357h3.6a1.178 1.178 0 0 0 1.015-1.774l-3.371-5.844-2.968 1.716 1.73-6.426 6.423 1.712-3.147 1.82 3.375 5.85c.297.507.472 1.117.472 1.767a3.533 3.533 0 0 1-3.53 3.536zm-7.284-18.516a1.178 1.178 0 0 0-2.035-.006l-3.627 6.286 2.825 1.634-6.424 1.714-1.73-6.427 3.287 1.901 3.623-6.28a3.526 3.526 0 1 1 6.11-.016l1.409 2.443-2.039 1.178-1.399-2.427zM103.514 80.34a1.178 1.178 0 0 0 1.02 1.768h5.953v-3.536l4.692 4.714L110.487 88v-3.535H104.53a3.533 3.533 0 0 1-3.048-5.32l1.142-1.981 2.039 1.178-1.15 1.998z"/>
        </g>
    </g>
</svg>
