<svg xmlns="http://www.w3.org/2000/svg" xmlns:xlink="http://www.w3.org/1999/xlink" width="214" height="171" viewBox="0 0 214 171">
    <defs>
        <linearGradient id="c" x1="50%" x2="50%" y1="0%" y2="100%">
            <stop offset="0%" stop-color="#B5EC45"/>
            <stop offset="100%" stop-color="#7ED321"/>
        </linearGradient>
        <path id="b" d="M0 0h320v568H0z"/>
        <filter id="a" width="102.5%" height="101.4%" x="-1.2%" y="-.4%" filterUnits="objectBoundingBox">
            <feOffset dy="2" in="SourceAlpha" result="shadowOffsetOuter1"/>
            <feGaussianBlur in="shadowOffsetOuter1" result="shadowBlurOuter1" stdDeviation="1"/>
            <feColorMatrix in="shadowBlurOuter1" values="0 0 0 0 0 0 0 0 0 0 0 0 0 0 0 0 0 0 0.287109375 0"/>
        </filter>
        <rect id="e" width="290" height="384" x="15" y="61" rx="7.2"/>
        <filter id="d" width="113.1%" height="109.9%" x="-5.9%" y="-4.7%" filterUnits="objectBoundingBox">
            <feMorphology in="SourceAlpha" operator="dilate" radius=".5" result="shadowSpreadOuter1"/>
            <feOffset dx="2" dy="1" in="shadowSpreadOuter1" result="shadowOffsetOuter1"/>
            <feGaussianBlur in="shadowOffsetOuter1" result="shadowBlurOuter1" stdDeviation="5.5"/>
            <feColorMatrix in="shadowBlurOuter1" values="0 0 0 0 0 0 0 0 0 0 0 0 0 0 0 0 0 0 0.215551404 0"/>
        </filter>
    </defs>
    <g fill="none" fill-rule="evenodd">
        <g transform="translate(-49 -102)">
            <use fill="#000" filter="url(#a)" xlink:href="#b"/>
            <use fill="url(#c)" xlink:href="#b"/>
        </g>
        <g transform="translate(-49 -102)">
            <use fill="#000" filter="url(#d)" xlink:href="#e"/>
            <use fill="#FFF" xlink:href="#e"/>
        </g>
        <path stroke="#417505" stroke-linecap="round" stroke-linejoin="round" stroke-width="2.2" d="M11.895 169.901h191.31"/>
        <g transform="translate(68 2)">
            <path stroke="#417505" stroke-width="2.6" d="M92.829.096C93.19.225 94.58 1.886 97 5.082v26.263l-7.646 2.92V46.27l-10.52-12.006H50.086l-2.79-4.22V.096c29.992-.128 45.17-.128 45.532 0z"/>
            <path fill="#FFF" stroke="#417505" stroke-width="2.6" d="M5.242 12.884c-.455.16-2.202 2.237-5.242 6.23v32.813l9.609 3.648v15l13.222-15h36.126l3.506-5.273V12.884c-37.692-.16-56.766-.16-57.22 0z"/>
            <rect width="9.62" height="10.371" x="10.421" y="28.719" fill="#D5F0B0" rx=".8"/>
            <rect width="9.62" height="10.371" x="26.455" y="28.719" fill="#D5F0B0" rx=".8"/>
            <rect width="8.017" height="7.978" x="68.14" y="11.966" fill="#D5F0B0" rx=".64" transform="matrix(-1 0 0 1 144.298 0)"/>
            <rect width="9.62" height="10.371" x="42.488" y="28.719" fill="#D5F0B0" rx=".8"/>
            <rect width="8.017" height="7.978" x="80.967" y="11.966" fill="#D5F0B0" rx=".64" transform="matrix(-1 0 0 1 169.95 0)"/>
        </g>
        <path fill="#D0EE9E" fill-opacity=".29" d="M109.451 86.624l45.829 22.574-8.535-23.609z"/>
        <path fill="#417505" fill-rule="nonzero" d="M159.619 117.918v-8.597h-1.754l-9.341-25.791h-37.621v-1.433h2.866V73.5h-20.06v8.597h2.866v1.433h-6.1l-9.34 25.791H79.38v8.597h2.866v48.717H79.38v2.865H159.619v-2.865h-2.865v-48.717h2.865zM96.575 76.366h14.328v2.866H96.575v-2.866zm11.462 5.731v14.328H99.44V82.097h8.597zm-15.553 4.299h4.09v12.896h14.328V86.396h35.613l8.302 22.925H84.183l8.301-22.925zm25.583 80.239h-7.165v-15.762h7.165v15.762zm10.03 0h-7.164v-15.762h7.164v15.762zm25.791 0h-22.925v-18.627H108.037v18.627H85.112v-48.717h68.776v48.717zm-71.642-51.583v-2.866h74.508v2.866H82.246z"/>
        <path fill="#417505" fill-rule="nonzero" d="M106.604 132.963v-7.881H89.411v14.328h17.194v-6.447h-.001zm-10.029 3.582h-4.298v-2.866h4.298v2.866zm0-5.732h-4.298v-2.865h4.298v2.865zm7.164 5.732H99.44v-2.866h4.298v2.866h.001zm0-5.732H99.44v-2.865h4.298v2.865h.001zM128.097 132.963v-7.881h-17.194v14.328h17.194v-6.447zm-10.03 3.582h-4.299v-2.866h4.299v2.866zm0-5.732h-4.299v-2.865h4.299v2.865zm7.164 5.732h-4.299v-2.866h4.299v2.866zm0-5.732h-4.299v-2.865h4.299v2.865zM149.59 132.963v-7.881h-17.194v14.328h17.194v-6.447zm-10.03 3.582h-4.299v-2.866h4.299v2.866zm0-5.732h-4.299v-2.865h4.299v2.865zm7.164 5.732h-4.298v-2.866h4.298v2.866zm0-5.732h-4.298v-2.865h4.298v2.865z"/>
        <path stroke="#417505" stroke-linecap="round" stroke-linejoin="round" stroke-width="2.2" d="M208.702 169.901H212M2 169.901h3.298"/>
        <g fill="#417505" fill-rule="nonzero">
            <path d="M72.585 142.037l-.958-5.051c-.302-1.212-1.364-2.038-2.552-1.983H48.557c-1.188-.055-2.25.771-2.553 1.983l-.963 5.044a2.268 2.268 0 0 0-.04.508v3.3c.066 1.203.953 2.176 2.09 2.293l1.954 19.284c.119 1.344 1.194 2.367 2.475 2.354h14.56c1.256.001 2.312-.996 2.448-2.313l2.006-19.277c1.14-.117 2.028-1.094 2.09-2.299v-3.335c.006-.17-.007-.341-.04-.508zm-26.268.281l.964-5.044c.185-.579.725-.946 1.302-.885h20.479c.577-.061 1.117.306 1.302.885l.944 5.044a.848.848 0 0 1-.175.686c-.28.328-.683.509-1.1.495h-22.44a1.386 1.386 0 0 1-1.1-.495.848.848 0 0 1-.176-.686zm20.915 24.953c-.05.633-.55 1.12-1.152 1.126H51.52c-.595.003-1.096-.468-1.16-1.092l-1.953-19.099h20.837l-2.012 19.065zm2.872-20.458h-22.57c-.58.064-1.108-.355-1.21-.96v-1.318c.403.217.849.33 1.302.33h22.406c.453 0 .9-.113 1.302-.33v1.31c-.1.614-.637 1.04-1.224.968h-.006z"/>
            <path d="M61.168 152.843c-.36 0-.65.308-.65.687 0 .379.29.686.65.686h2.006c.36 0 .651-.307.651-.686v-2.114c0-.379-.291-.686-.651-.686-.36 0-.651.307-.651.686v.405c-2.469-1.82-5.82-1.51-7.95.734a.714.714 0 0 0 .033.932c.24.253.626.269.884.036 1.64-1.728 4.201-2.014 6.147-.686h-.469v.006zM57.704 162.17c-2.237-.633-3.753-2.825-3.64-5.264l.235.426c.187.31.573.41.875.226a.706.706 0 0 0 .251-.913l-1.003-1.825a.657.657 0 0 0-.39-.316.622.622 0 0 0-.495.069l-1.732 1.057a.708.708 0 0 0-.215.922.634.634 0 0 0 .866.265l.358-.213c-.244 3.145 1.67 6.028 4.558 6.863.236.126.522.09.722-.094a.71.71 0 0 0 .19-.74.657.657 0 0 0-.58-.463zM64.183 154.985c-.346.097-.553.471-.462.837.6 2.36-.445 4.84-2.507 5.957l.234-.412a.706.706 0 0 0-.25-.912.632.632 0 0 0-.876.226l-.996 1.811a.707.707 0 0 0 .227.934l1.726 1.064c.31.17.691.053.866-.265a.708.708 0 0 0-.215-.923l-.332-.199c2.733-1.343 4.155-4.562 3.373-7.631-.092-.362-.443-.579-.788-.487zM58.883 141.815c1.64 0 3.028-.46 3.62-1.194.26-.304.376-.714.32-1.119-.203-1.304-2.182-1.894-3.908-1.894-1.725 0-3.737.59-3.907 1.894-.057.405.06.815.32 1.119.527.734 1.914 1.194 3.555 1.194zm0-2.834c1.582 0 2.507.508 2.644.734-.137.226-1.036.727-2.644.727-1.609 0-2.605-.542-2.657-.686.078-.226 1.01-.775 2.657-.775z"/>
        </g>
        <g fill="#417505" fill-rule="nonzero">
            <path d="M197.585 142.037l-.958-5.051c-.302-1.212-1.364-2.038-2.552-1.983h-20.518c-1.188-.055-2.25.771-2.553 1.983l-.963 5.044a2.268 2.268 0 0 0-.04.508v3.3c.066 1.203.953 2.176 2.09 2.293l1.954 19.284c.119 1.344 1.194 2.367 2.475 2.354h14.56c1.256.001 2.312-.996 2.448-2.313l2.006-19.277c1.14-.117 2.028-1.094 2.09-2.299v-3.335c.006-.17-.007-.341-.04-.508zm-26.268.281l.964-5.044c.185-.579.725-.946 1.302-.885h20.479c.577-.061 1.117.306 1.302.885l.944 5.044a.848.848 0 0 1-.175.686c-.28.328-.683.509-1.1.495h-22.44a1.386 1.386 0 0 1-1.1-.495.848.848 0 0 1-.176-.686zm20.915 24.953c-.05.633-.55 1.12-1.152 1.126h-14.56c-.595.003-1.096-.468-1.16-1.092l-1.953-19.099h20.837l-2.012 19.065zm2.872-20.458h-22.57c-.58.064-1.108-.355-1.21-.96v-1.318c.403.217.849.33 1.302.33h22.406c.453 0 .9-.113 1.302-.33v1.31c-.1.614-.637 1.04-1.224.968h-.006z"/>
            <path d="M186.168 152.843c-.36 0-.65.308-.65.687 0 .379.29.686.65.686h2.006c.36 0 .651-.307.651-.686v-2.114c0-.379-.291-.686-.651-.686-.36 0-.651.307-.651.686v.405c-2.469-1.82-5.82-1.51-7.95.734a.714.714 0 0 0 .033.932c.24.253.626.269.884.036 1.64-1.728 4.201-2.014 6.147-.686h-.469v.006zM182.704 162.17c-2.237-.633-3.753-2.825-3.64-5.264l.235.426c.187.31.573.41.875.226a.706.706 0 0 0 .251-.913l-1.003-1.825a.657.657 0 0 0-.39-.316.622.622 0 0 0-.495.069l-1.732 1.057a.708.708 0 0 0-.215.922.634.634 0 0 0 .866.265l.358-.213c-.244 3.145 1.67 6.028 4.558 6.863.236.126.522.09.722-.094a.71.71 0 0 0 .19-.74.657.657 0 0 0-.58-.463zM189.183 154.985c-.346.097-.553.471-.462.837.6 2.36-.445 4.84-2.507 5.957l.234-.412a.706.706 0 0 0-.25-.912.632.632 0 0 0-.876.226l-.996 1.811a.707.707 0 0 0 .227.934l1.726 1.064c.31.17.691.053.866-.265a.708.708 0 0 0-.215-.923l-.332-.199c2.733-1.343 4.155-4.562 3.373-7.631-.092-.362-.443-.579-.788-.487zM183.883 141.815c1.64 0 3.028-.46 3.62-1.194.26-.304.376-.714.32-1.119-.203-1.304-2.182-1.894-3.908-1.894-1.725 0-3.737.59-3.907 1.894-.057.405.06.815.32 1.119.527.734 1.914 1.194 3.555 1.194zm0-2.834c1.582 0 2.507.508 2.644.734-.137.226-1.036.727-2.644.727-1.609 0-2.605-.542-2.657-.686.078-.226 1.01-.775 2.657-.775z"/>
        </g>
        <g fill="#417505" fill-rule="nonzero">
            <path d="M40.585 142.037l-.958-5.051c-.302-1.212-1.364-2.038-2.552-1.983H16.557c-1.188-.055-2.25.771-2.553 1.983l-.963 5.044a2.268 2.268 0 0 0-.04.508v3.3c.066 1.203.953 2.176 2.09 2.293l1.954 19.284c.119 1.344 1.194 2.367 2.475 2.354h14.56c1.256.001 2.312-.996 2.448-2.313l2.006-19.277c1.14-.117 2.028-1.094 2.09-2.299v-3.335c.006-.17-.007-.341-.04-.508zm-26.268.281l.964-5.044c.185-.579.725-.946 1.302-.885h20.479c.577-.061 1.117.306 1.302.885l.944 5.044a.848.848 0 0 1-.175.686c-.28.328-.683.509-1.1.495h-22.44a1.386 1.386 0 0 1-1.1-.495.848.848 0 0 1-.176-.686zm20.915 24.953c-.05.633-.55 1.12-1.152 1.126H19.52c-.595.003-1.096-.468-1.16-1.092l-1.953-19.099h20.837l-2.012 19.065zm2.872-20.458h-22.57c-.58.064-1.108-.355-1.21-.96v-1.318c.403.217.849.33 1.302.33h22.406c.453 0 .9-.113 1.302-.33v1.31c-.1.614-.637 1.04-1.224.968h-.006z"/>
            <path d="M29.168 152.843c-.36 0-.65.308-.65.687 0 .379.29.686.65.686h2.006c.36 0 .651-.307.651-.686v-2.114c0-.379-.291-.686-.651-.686-.36 0-.651.307-.651.686v.405c-2.469-1.82-5.82-1.51-7.95.734a.714.714 0 0 0 .033.932c.24.253.626.269.884.036 1.64-1.728 4.201-2.014 6.147-.686h-.469v.006zM25.704 162.17c-2.237-.633-3.753-2.825-3.64-5.264l.235.426c.187.31.573.41.875.226a.706.706 0 0 0 .251-.913l-1.003-1.825a.657.657 0 0 0-.39-.316.622.622 0 0 0-.495.069l-1.732 1.057a.708.708 0 0 0-.215.922.634.634 0 0 0 .866.265l.358-.213c-.244 3.145 1.67 6.028 4.558 6.863.236.126.522.09.722-.094a.71.71 0 0 0 .19-.74.657.657 0 0 0-.58-.463zM32.183 154.985c-.346.097-.553.471-.462.837.6 2.36-.445 4.84-2.507 5.957l.234-.412a.706.706 0 0 0-.25-.912.632.632 0 0 0-.876.226l-.996 1.811a.707.707 0 0 0 .227.934l1.726 1.064c.31.17.691.053.866-.265a.708.708 0 0 0-.215-.923l-.332-.199c2.733-1.343 4.155-4.562 3.373-7.631-.092-.362-.443-.579-.788-.487zM26.883 141.815c1.64 0 3.028-.46 3.62-1.194.26-.304.376-.714.32-1.119-.203-1.304-2.182-1.894-3.908-1.894-1.725 0-3.737.59-3.907 1.894-.057.405.06.815.32 1.119.527.734 1.914 1.194 3.555 1.194zm0-2.834c1.582 0 2.507.508 2.644.734-.137.226-1.036.727-2.644.727-1.609 0-2.605-.542-2.657-.686.078-.226 1.01-.775 2.657-.775z"/>
        </g>
    </g>
</svg>
