<svg xmlns="http://www.w3.org/2000/svg" width="35" height="61" viewBox="0 0 35 61">
    <g fill="none" fill-rule="evenodd">
        <path fill="#96B00D" d="M10.183 4h14.674c5.523 0 10 4.477 10 10a10 10 0 0 1-.043.931l-.629 6.72a100 100 0 0 0-.115 17.294l.901 11.257c.441 5.505-3.664 10.325-9.17 10.766a10 10 0 0 1-.798.032H9.996c-5.523 0-10-4.477-10-10a10 10 0 0 1 .038-.87L.96 39.52A100 100 0 0 0 .8 20.414L.237 15.04C-.337 9.547 3.65 4.628 9.143 4.054A10 10 0 0 1 10.183 4z"/>
        <path fill="#768A0C" d="M9.856 10h14.831a7 7 0 0 1 6.97 7.658l-1.248 13.21a7 7 0 0 0-.008 1.221l1.367 16.909a7 7 0 0 1-6.978 7.564H9.724a7 7 0 0 1-6.973-7.616l1.506-17.065a7 7 0 0 0-.012-1.35l-1.35-12.797A7 7 0 0 1 9.856 10z" opacity=".483"/>
        <rect width="27.51" height="6.822" x="4" fill="#4A4A4A" rx="3.411"/>
    </g>
</svg>
