<svg xmlns="http://www.w3.org/2000/svg" width="33" height="65" viewBox="0 0 33 65">
    <g fill="none" fill-rule="evenodd">
        <path fill="#4A4A4A" d="M6.075 61c-2.138-2.061-3.582-4.777-3.97-7.804A3.001 3.001 0 0 1 0 50.332V3a3 3 0 0 1 3-3h27a3 3 0 0 1 3 3v47.332a3 3 0 0 1-2.871 2.997c-.413 2.973-1.846 5.64-3.952 7.671H33v4H0v-4h6.075z"/>
        <path fill="#787878" d="M4 4h25v44H4z"/>
        <ellipse cx="9.184" cy="50.5" fill="#2F2F2F" rx="3.184" ry="1"/>
        <ellipse cx="23.184" cy="50.5" fill="#2F2F2F" rx="3.184" ry="1"/>
    </g>
</svg>
